<svg width="903" height="264" viewBox="0 0 903 264" fill="none" xmlns="http://www.w3.org/2000/svg">
<path d="M532.497 67.0023V119.502H521.247V67.0023H532.497ZM552.297 116.277L554.097 119.502H532.272V116.277H552.297ZM549.522 92.0523V95.2023H532.272V92.0523H549.522ZM553.197 67.0023V70.2273H532.272V67.0023H553.197ZM557.772 104.127L554.322 119.502H539.622L542.322 116.277C544.822 116.277 547.022 115.802 548.922 114.852C550.822 113.852 552.447 112.452 553.797 110.652C555.147 108.802 556.222 106.627 557.022 104.127H557.772ZM549.522 95.0523V102.252H548.772V101.652C548.772 99.8023 548.172 98.2773 546.972 97.0773C545.772 95.8773 544.247 95.2523 542.397 95.2023V95.0523H549.522ZM549.522 85.0023V92.2023H542.397V92.0523C544.247 92.0023 545.772 91.3773 546.972 90.1773C548.172 88.9273 548.772 87.3773 548.772 85.5273V85.0023H549.522ZM553.197 70.0023V78.7773H552.447V77.8773C552.447 75.5773 551.747 73.7273 550.347 72.3273C548.997 70.9273 547.147 70.2023 544.797 70.1523V70.0023H553.197ZM553.197 65.6523V67.8273L544.047 67.0023C545.147 67.0023 546.297 66.9273 547.497 66.7773C548.747 66.6273 549.897 66.4523 550.947 66.2523C551.997 66.0523 552.747 65.8523 553.197 65.6523ZM521.472 114.027V119.502H515.472V118.752C515.472 118.752 515.622 118.752 515.922 118.752C516.272 118.752 516.447 118.752 516.447 118.752C517.747 118.752 518.847 118.302 519.747 117.402C520.697 116.452 521.197 115.327 521.247 114.027H521.472ZM521.472 72.4773H521.247C521.197 71.1773 520.697 70.0773 519.747 69.1773C518.847 68.2273 517.747 67.7523 516.447 67.7523C516.447 67.7523 516.272 67.7523 515.922 67.7523C515.622 67.7523 515.472 67.7523 515.472 67.7523V67.0023H521.472V72.4773Z" fill="#39444E"/>
<path d="M503.374 67.0023V119.502H492.124V67.0023H503.374ZM467.824 67.0023V119.502H456.574V67.0023H467.824ZM492.799 91.7523V94.9773H467.074V91.7523H492.799ZM456.799 114.027V119.502H450.799V118.752C450.799 118.752 450.949 118.752 451.249 118.752C451.599 118.752 451.774 118.752 451.774 118.752C453.074 118.752 454.174 118.302 455.074 117.402C456.024 116.452 456.524 115.327 456.574 114.027H456.799ZM456.799 72.4773H456.574C456.524 71.1773 456.024 70.0773 455.074 69.1773C454.174 68.2273 453.074 67.7523 451.774 67.7523C451.774 67.7523 451.599 67.7523 451.249 67.7523C450.949 67.7523 450.799 67.7523 450.799 67.7523V67.0023H456.799V72.4773ZM467.599 114.027H467.824C467.874 115.327 468.349 116.452 469.249 117.402C470.199 118.302 471.324 118.752 472.624 118.752C472.624 118.752 472.774 118.752 473.074 118.752C473.374 118.752 473.549 118.752 473.599 118.752V119.502H467.599V114.027ZM467.599 72.4773V67.0023H473.599V67.7523C473.549 67.7523 473.374 67.7523 473.074 67.7523C472.774 67.7523 472.624 67.7523 472.624 67.7523C471.324 67.7523 470.199 68.2273 469.249 69.1773C468.349 70.0773 467.874 71.1773 467.824 72.4773H467.599ZM492.349 114.027V119.502H486.349V118.752C486.399 118.752 486.574 118.752 486.874 118.752C487.174 118.752 487.324 118.752 487.324 118.752C488.624 118.752 489.749 118.302 490.699 117.402C491.649 116.452 492.124 115.327 492.124 114.027H492.349ZM492.349 72.4773H492.124C492.124 71.1773 491.649 70.0773 490.699 69.1773C489.749 68.2273 488.624 67.7523 487.324 67.7523C487.324 67.7523 487.174 67.7523 486.874 67.7523C486.574 67.7523 486.399 67.7523 486.349 67.7523V67.0023H492.349V72.4773ZM503.149 114.027H503.374C503.424 115.327 503.899 116.452 504.799 117.402C505.749 118.302 506.874 118.752 508.174 118.752C508.174 118.752 508.324 118.752 508.624 118.752C508.974 118.752 509.149 118.752 509.149 118.752V119.502H503.149V114.027ZM503.149 72.4773V67.0023H509.149V67.7523C509.149 67.7523 508.974 67.7523 508.624 67.7523C508.324 67.7523 508.174 67.7523 508.174 67.7523C506.874 67.7523 505.749 68.2273 504.799 69.1773C503.899 70.0773 503.424 71.1773 503.374 72.4773H503.149Z" fill="#39444E"/>
<path d="M428.3 67.2273V119.502H417.05V67.2273H428.3ZM446.675 66.9273V70.0773H398.675V66.9273H446.675ZM446.675 69.8523V78.7023L445.925 78.6273V77.8023C445.925 75.4523 445.225 73.6023 443.825 72.2523C442.475 70.8523 440.625 70.1273 438.275 70.0773V69.8523H446.675ZM446.675 65.5773V67.7523L437.525 66.9273C438.625 66.9273 439.775 66.8523 440.975 66.7023C442.225 66.5523 443.375 66.3773 444.425 66.1773C445.475 65.9773 446.225 65.7773 446.675 65.5773ZM417.275 114.027V119.502H411.275V118.752C411.275 118.752 411.425 118.752 411.725 118.752C412.075 118.752 412.25 118.752 412.25 118.752C413.55 118.752 414.65 118.302 415.55 117.402C416.5 116.452 417 115.327 417.05 114.027H417.275ZM428.075 114.027H428.3C428.35 115.327 428.825 116.452 429.725 117.402C430.675 118.302 431.8 118.752 433.1 118.752C433.1 118.752 433.25 118.752 433.55 118.752C433.9 118.752 434.075 118.752 434.075 118.752V119.502H428.075V114.027ZM407 69.8523V70.0773C404.7 70.1273 402.85 70.8523 401.45 72.2523C400.1 73.6023 399.425 75.4523 399.425 77.8023V78.6273L398.675 78.7023V69.8523H407ZM398.675 65.5773C399.175 65.7773 399.925 65.9773 400.925 66.1773C401.975 66.3773 403.125 66.5523 404.375 66.7023C405.625 66.8523 406.775 66.9273 407.825 66.9273L398.675 67.7523V65.5773Z" fill="#39444E"/>
<path d="M866.202 141.902H874.974C877.014 141.902 879.009 142.129 880.958 142.582C882.907 143.036 884.63 143.761 886.126 144.758C887.667 145.756 888.891 147.07 889.798 148.702C890.705 150.334 891.158 152.352 891.158 154.754C891.158 156.658 890.75 158.562 889.934 160.466C889.163 162.325 887.962 163.934 886.33 165.294C884.698 166.609 882.59 167.402 880.006 167.674C881.457 168.128 882.771 168.944 883.95 170.122C885.174 171.301 886.171 172.48 886.942 173.658C886.987 173.749 887.237 174.157 887.69 174.882C888.189 175.608 888.778 176.514 889.458 177.602C890.183 178.645 890.931 179.71 891.702 180.798C892.473 181.886 893.175 182.838 893.81 183.654C894.807 184.878 895.714 185.876 896.53 186.646C897.346 187.372 898.207 187.916 899.114 188.278C900.02 188.596 901.063 188.777 902.242 188.822V189.502H895.578C893.13 189.502 890.909 189.298 888.914 188.89C886.919 188.437 885.151 187.689 883.61 186.646C882.068 185.604 880.731 184.198 879.598 182.43C879.235 181.886 878.827 181.206 878.374 180.39C877.966 179.529 877.535 178.622 877.082 177.67C876.629 176.718 876.175 175.812 875.722 174.95C875.314 174.044 874.951 173.228 874.634 172.502C874.317 171.777 874.09 171.21 873.954 170.802C873.365 169.352 872.662 168.264 871.846 167.538C871.075 166.813 870.237 166.382 869.33 166.246V165.566C869.466 165.566 869.738 165.566 870.146 165.566C870.554 165.566 870.985 165.566 871.438 165.566C872.662 165.566 873.841 165.317 874.974 164.818C876.153 164.32 877.195 163.504 878.102 162.37C879.009 161.237 879.643 159.673 880.006 157.678C880.097 157.27 880.165 156.794 880.21 156.25C880.301 155.706 880.323 155.094 880.278 154.414C880.142 151.15 879.326 148.77 877.83 147.274C876.334 145.733 874.475 144.94 872.254 144.894C871.619 144.849 870.917 144.849 870.146 144.894C869.421 144.894 868.741 144.894 868.106 144.894C867.517 144.894 867.109 144.894 866.882 144.894C866.882 144.849 866.814 144.6 866.678 144.146C866.587 143.648 866.474 143.149 866.338 142.65C866.247 142.152 866.202 141.902 866.202 141.902ZM867.086 141.902V189.502H856.886V141.902H867.086ZM857.09 184.538V189.502H851.65V188.822C851.695 188.822 851.831 188.822 852.058 188.822C852.33 188.822 852.489 188.822 852.534 188.822C853.713 188.822 854.71 188.414 855.526 187.598C856.387 186.737 856.841 185.717 856.886 184.538H857.09ZM857.09 146.866H856.886C856.841 145.688 856.387 144.69 855.526 143.874C854.71 143.013 853.713 142.582 852.534 142.582C852.489 142.582 852.33 142.582 852.058 142.582C851.831 142.582 851.695 142.582 851.65 142.582V141.902H857.09V146.866ZM866.882 184.538H867.086C867.086 185.717 867.517 186.737 868.378 187.598C869.239 188.414 870.259 188.822 871.438 188.822C871.529 188.822 871.687 188.822 871.914 188.822C872.141 188.822 872.254 188.822 872.254 188.822V189.502H866.882V184.538Z" fill="#39444E"/>
<path d="M820.208 140.95C825.648 140.95 830.363 141.97 834.352 144.01C838.387 146.005 841.492 148.838 843.668 152.51C845.89 156.182 847 160.58 847 165.702C847 170.78 845.89 175.177 843.668 178.894C841.492 182.566 838.387 185.422 834.352 187.462C830.363 189.457 825.648 190.454 820.208 190.454C814.768 190.454 810.031 189.457 805.996 187.462C802.007 185.422 798.924 182.566 796.748 178.894C794.572 175.222 793.484 170.825 793.484 165.702C793.484 160.625 794.572 156.25 796.748 152.578C798.924 148.861 802.007 146.005 805.996 144.01C810.031 141.97 814.768 140.95 820.208 140.95ZM820.208 187.598C823.427 187.598 826.192 186.714 828.504 184.946C830.816 183.133 832.607 180.594 833.876 177.33C835.146 174.066 835.78 170.19 835.78 165.702C835.78 161.214 835.146 157.338 833.876 154.074C832.607 150.81 830.816 148.294 828.504 146.526C826.192 144.713 823.427 143.806 820.208 143.806C817.035 143.806 814.27 144.713 811.912 146.526C809.6 148.294 807.81 150.81 806.54 154.074C805.271 157.338 804.636 161.214 804.636 165.702C804.636 170.19 805.271 174.066 806.54 177.33C807.81 180.594 809.6 183.133 811.912 184.946C814.27 186.714 817.035 187.598 820.208 187.598Z" fill="#39444E"/>
<path d="M760.649 141.902C765.999 141.902 770.623 142.877 774.521 144.826C778.42 146.73 781.412 149.473 783.497 153.054C785.628 156.59 786.693 160.806 786.693 165.702C786.693 170.598 785.628 174.837 783.497 178.418C781.412 181.954 778.42 184.697 774.521 186.646C770.623 188.55 765.999 189.502 760.649 189.502H744.465L744.397 186.646C745.712 186.646 747.072 186.646 748.477 186.646C749.928 186.646 751.333 186.646 752.693 186.646C754.053 186.646 755.255 186.646 756.297 186.646C757.385 186.646 758.247 186.646 758.881 186.646C759.516 186.646 759.833 186.646 759.833 186.646C763.097 186.646 765.908 185.808 768.265 184.13C770.623 182.408 772.436 179.982 773.705 176.854C774.975 173.726 775.609 170.009 775.609 165.702C775.609 161.396 774.975 157.678 773.705 154.55C772.436 151.422 770.623 149.02 768.265 147.342C765.908 145.62 763.097 144.758 759.833 144.758C759.833 144.758 759.493 144.758 758.813 144.758C758.179 144.758 757.295 144.758 756.161 144.758C755.028 144.758 753.759 144.758 752.353 144.758C750.948 144.758 749.497 144.758 748.001 144.758C746.505 144.758 745.077 144.758 743.717 144.758V141.902H760.649ZM751.401 141.902V189.502H741.201V141.902H751.401ZM741.405 184.538V189.502H735.965V188.822C735.965 188.822 736.101 188.822 736.373 188.822C736.691 188.822 736.849 188.822 736.849 188.822C738.028 188.822 739.025 188.414 739.841 187.598C740.703 186.737 741.156 185.717 741.201 184.538H741.405ZM741.405 146.866H741.201C741.201 145.688 740.771 144.69 739.909 143.874C739.048 143.013 738.028 142.582 736.849 142.582C736.849 142.582 736.713 142.582 736.441 142.582C736.169 142.582 736.033 142.582 736.033 142.582L735.965 141.902H741.405V146.866Z" fill="#39444E"/>
<path d="M708.439 140.542L730.675 189.094H718.435L704.291 153.666L708.439 140.542ZM693.819 184.538C693.457 185.445 693.389 186.216 693.615 186.85C693.842 187.485 694.227 187.984 694.771 188.346C695.315 188.664 695.859 188.822 696.403 188.822H697.015V189.502H682.463V188.822C682.463 188.822 682.577 188.822 682.803 188.822C682.985 188.822 683.075 188.822 683.075 188.822C684.118 188.822 685.183 188.505 686.271 187.87C687.405 187.19 688.334 186.08 689.059 184.538H693.819ZM708.439 140.542L708.711 148.838L691.847 189.298H686.883L704.495 149.45C704.631 149.178 704.858 148.68 705.175 147.954C705.538 147.184 705.901 146.322 706.263 145.37C706.671 144.418 707.034 143.512 707.351 142.65C707.669 141.744 707.827 141.041 707.827 140.542H708.439ZM715.579 173.318V176.174H695.587V173.318H715.579ZM716.599 184.538H728.499C729.27 186.08 730.199 187.19 731.287 187.87C732.375 188.505 733.441 188.822 734.483 188.822C734.483 188.822 734.574 188.822 734.755 188.822C734.937 188.822 735.027 188.822 735.027 188.822V189.502H713.403V188.822H714.015C714.922 188.822 715.715 188.46 716.395 187.734C717.075 186.964 717.143 185.898 716.599 184.538Z" fill="#39444E"/>
<path d="M663.891 140.95C664.797 140.95 665.908 140.996 667.223 141.086C668.583 141.177 669.965 141.313 671.371 141.494C672.821 141.63 674.068 141.789 675.111 141.97C676.199 142.106 676.947 142.265 677.355 142.446L676.539 151.626H675.859C675.859 149.269 674.975 147.388 673.207 145.982C671.484 144.532 669.172 143.806 666.271 143.806C663.641 143.806 661.511 144.441 659.879 145.71C658.292 146.98 657.453 148.521 657.363 150.334C657.317 151.694 657.748 152.873 658.655 153.87C659.561 154.868 660.717 155.797 662.123 156.658L675.111 165.09C677.196 166.269 678.76 167.81 679.803 169.714C680.891 171.618 681.367 173.84 681.231 176.378C681.004 180.821 679.304 184.289 676.131 186.782C672.957 189.23 668.651 190.454 663.211 190.454C661.216 190.454 659.267 190.273 657.363 189.91C655.504 189.593 653.849 189.14 652.399 188.55C650.948 187.916 649.792 187.168 648.931 186.306C648.568 185.309 648.409 184.108 648.455 182.702C648.5 181.297 648.704 179.869 649.067 178.418C649.475 176.968 649.973 175.766 650.563 174.814H651.175C650.993 177.126 651.401 179.28 652.399 181.274C653.441 183.224 654.937 184.788 656.887 185.966C658.881 187.1 661.239 187.644 663.959 187.598C666.951 187.553 669.263 186.805 670.895 185.354C672.527 183.858 673.343 182.068 673.343 179.982C673.343 178.577 672.912 177.308 672.051 176.174C671.235 175.041 669.875 173.953 667.971 172.91L656.071 165.022C653.668 163.662 651.923 161.917 650.835 159.786C649.747 157.656 649.316 155.344 649.543 152.85C649.769 150.493 650.472 148.43 651.651 146.662C652.829 144.849 654.439 143.444 656.479 142.446C658.564 141.449 661.035 140.95 663.891 140.95ZM677.423 141.63L677.287 143.058H669.263V141.63H677.423Z" fill="#39444E"/>
<path d="M624.578 140.95C625.485 140.95 626.596 140.996 627.91 141.086C629.27 141.177 630.653 141.313 632.058 141.494C633.509 141.63 634.756 141.789 635.798 141.97C636.886 142.106 637.634 142.265 638.042 142.446L637.226 151.626H636.546C636.546 149.269 635.662 147.388 633.894 145.982C632.172 144.532 629.86 143.806 626.958 143.806C624.329 143.806 622.198 144.441 620.566 145.71C618.98 146.98 618.141 148.521 618.05 150.334C618.005 151.694 618.436 152.873 619.342 153.87C620.249 154.868 621.405 155.797 622.81 156.658L635.798 165.09C637.884 166.269 639.448 167.81 640.49 169.714C641.578 171.618 642.054 173.84 641.918 176.378C641.692 180.821 639.992 184.289 636.818 186.782C633.645 189.23 629.338 190.454 623.898 190.454C621.904 190.454 619.954 190.273 618.05 189.91C616.192 189.593 614.537 189.14 613.086 188.55C611.636 187.916 610.48 187.168 609.618 186.306C609.256 185.309 609.097 184.108 609.142 182.702C609.188 181.297 609.392 179.869 609.754 178.418C610.162 176.968 610.661 175.766 611.25 174.814H611.862C611.681 177.126 612.089 179.28 613.086 181.274C614.129 183.224 615.625 184.788 617.574 185.966C619.569 187.1 621.926 187.644 624.646 187.598C627.638 187.553 629.95 186.805 631.582 185.354C633.214 183.858 634.03 182.068 634.03 179.982C634.03 178.577 633.6 177.308 632.738 176.174C631.922 175.041 630.562 173.953 628.658 172.91L616.758 165.022C614.356 163.662 612.61 161.917 611.522 159.786C610.434 157.656 610.004 155.344 610.23 152.85C610.457 150.493 611.16 148.43 612.338 146.662C613.517 144.849 615.126 143.444 617.166 142.446C619.252 141.449 621.722 140.95 624.578 140.95ZM638.11 141.63L637.974 143.058H629.95V141.63H638.11Z" fill="#39444E"/>
<path d="M581.072 140.542L603.308 189.094H591.068L576.924 153.666L581.072 140.542ZM566.452 184.538C566.089 185.445 566.021 186.216 566.248 186.85C566.475 187.485 566.86 187.984 567.404 188.346C567.948 188.664 568.492 188.822 569.036 188.822H569.648V189.502H555.096V188.822C555.096 188.822 555.209 188.822 555.436 188.822C555.617 188.822 555.708 188.822 555.708 188.822C556.751 188.822 557.816 188.505 558.904 187.87C560.037 187.19 560.967 186.08 561.692 184.538H566.452ZM581.072 140.542L581.344 148.838L564.48 189.298H559.516L577.128 149.45C577.264 149.178 577.491 148.68 577.808 147.954C578.171 147.184 578.533 146.322 578.896 145.37C579.304 144.418 579.667 143.512 579.984 142.65C580.301 141.744 580.46 141.041 580.46 140.542H581.072ZM588.212 173.318V176.174H568.22V173.318H588.212ZM589.232 184.538H601.132C601.903 186.08 602.832 187.19 603.92 187.87C605.008 188.505 606.073 188.822 607.116 188.822C607.116 188.822 607.207 188.822 607.388 188.822C607.569 188.822 607.66 188.822 607.66 188.822V189.502H586.036V188.822H586.648C587.555 188.822 588.348 188.46 589.028 187.734C589.708 186.964 589.776 185.898 589.232 184.538Z" fill="#39444E"/>
<path d="M521.924 141.902H533.688C536.997 141.902 539.944 142.31 542.528 143.126C545.157 143.897 547.22 145.144 548.716 146.866C550.212 148.544 550.96 150.765 550.96 153.53C550.96 155.616 550.552 157.384 549.736 158.834C548.965 160.285 547.945 161.396 546.676 162.166C545.406 162.937 544.069 163.413 542.664 163.594C544.93 163.776 546.97 164.41 548.784 165.498C550.642 166.586 552.093 168.037 553.136 169.85C554.178 171.664 554.7 173.794 554.7 176.242C554.7 179.144 553.906 181.592 552.32 183.586C550.733 185.536 548.489 187.009 545.588 188.006C542.732 189.004 539.4 189.502 535.592 189.502H528.86C528.86 189.502 528.86 189.253 528.86 188.754C528.905 188.21 528.928 187.689 528.928 187.19C528.928 186.692 528.928 186.442 528.928 186.442H532.6C534.64 186.442 536.43 186.057 537.972 185.286C539.558 184.516 540.782 183.314 541.644 181.682C542.55 180.05 543.004 177.965 543.004 175.426C543.004 173.432 542.686 171.732 542.052 170.326C541.462 168.921 540.646 167.788 539.604 166.926C538.606 166.02 537.428 165.362 536.068 164.954C534.708 164.546 533.28 164.342 531.784 164.342V163.73C532.826 163.73 533.846 163.572 534.844 163.254C535.841 162.892 536.725 162.348 537.496 161.622C538.312 160.897 538.946 159.945 539.4 158.766C539.853 157.542 540.08 156.092 540.08 154.414C540.08 152.102 539.717 150.244 538.992 148.838C538.312 147.433 537.314 146.413 536 145.778C534.685 145.144 533.166 144.826 531.444 144.826H522.604C522.604 144.781 522.536 144.532 522.4 144.078C522.309 143.58 522.196 143.104 522.06 142.65C521.969 142.152 521.924 141.902 521.924 141.902ZM529.472 141.902V189.502H519.272V141.902H529.472ZM519.476 184.538V189.502H514.036V188.822C514.126 188.822 514.285 188.822 514.512 188.822C514.738 188.822 514.874 188.822 514.92 188.822C516.098 188.822 517.096 188.414 517.912 187.598C518.773 186.737 519.226 185.717 519.272 184.538H519.476ZM519.476 146.866H519.272C519.226 145.688 518.773 144.69 517.912 143.874C517.096 143.013 516.098 142.582 514.92 142.582C514.874 142.582 514.738 142.582 514.512 142.582C514.285 142.582 514.126 142.582 514.036 142.582V141.902H519.476V146.866Z" fill="#39444E"/>
<path d="M499.407 140.95L499.951 148.362L479.755 183.382C479.755 183.382 479.529 183.79 479.075 184.606C478.622 185.377 478.169 186.329 477.715 187.462C477.307 188.596 477.103 189.729 477.103 190.862H476.423L473.771 184.946L499.407 140.95ZM453.303 184.538V189.502H445.755V188.822C445.801 188.822 446.005 188.822 446.367 188.822C446.685 188.822 446.843 188.822 446.843 188.822C448.067 188.822 449.155 188.46 450.107 187.734C451.059 186.964 451.626 185.898 451.807 184.538H453.303ZM456.295 185.626C456.295 185.672 456.295 185.717 456.295 185.762C456.295 185.808 456.295 185.876 456.295 185.966C456.295 186.692 456.545 187.372 457.043 188.006C457.587 188.596 458.222 188.89 458.947 188.89H459.967V189.502H455.819V185.626H456.295ZM457.451 140.95H458.063L460.443 147.75L455.887 189.502H451.127L457.451 140.95ZM458.063 140.95L480.299 177.466L476.423 190.862L456.295 157.066L458.063 140.95ZM500.019 140.95L506.479 189.502H495.531L492.131 158.222L499.407 140.95H500.019ZM504.371 184.538H505.799C506.026 185.898 506.615 186.964 507.567 187.734C508.519 188.46 509.585 188.822 510.763 188.822C510.763 188.822 510.945 188.822 511.307 188.822C511.67 188.822 511.851 188.822 511.851 188.822V189.502H504.371V184.538ZM495.123 185.626H495.599V189.502H491.451V188.89H492.471C493.242 188.89 493.877 188.596 494.375 188.006C494.874 187.372 495.123 186.692 495.123 185.966C495.123 185.876 495.123 185.808 495.123 185.762C495.123 185.717 495.123 185.672 495.123 185.626Z" fill="#39444E"/>
<path d="M421.697 140.542L443.933 189.094H431.693L417.549 153.666L421.697 140.542ZM407.077 184.538C406.714 185.445 406.646 186.216 406.873 186.85C407.1 187.485 407.485 187.984 408.029 188.346C408.573 188.664 409.117 188.822 409.661 188.822H410.273V189.502H395.721V188.822C395.721 188.822 395.834 188.822 396.061 188.822C396.242 188.822 396.333 188.822 396.333 188.822C397.376 188.822 398.441 188.505 399.529 187.87C400.662 187.19 401.592 186.08 402.317 184.538H407.077ZM421.697 140.542L421.969 148.838L405.105 189.298H400.141L417.753 149.45C417.889 149.178 418.116 148.68 418.433 147.954C418.796 147.184 419.158 146.322 419.521 145.37C419.929 144.418 420.292 143.512 420.609 142.65C420.926 141.744 421.085 141.041 421.085 140.542H421.697ZM428.837 173.318V176.174H408.845V173.318H428.837ZM429.857 184.538H441.757C442.528 186.08 443.457 187.19 444.545 187.87C445.633 188.505 446.698 188.822 447.741 188.822C447.741 188.822 447.832 188.822 448.013 188.822C448.194 188.822 448.285 188.822 448.285 188.822V189.502H426.661V188.822H427.273C428.18 188.822 428.973 188.46 429.653 187.734C430.333 186.964 430.401 185.898 429.857 184.538Z" fill="#39444E"/>
<path d="M867.001 67.0023C872.901 67.0023 878.001 68.0773 882.301 70.2273C886.601 72.3273 889.901 75.3523 892.201 79.3023C894.551 83.2023 895.726 87.8523 895.726 93.2523C895.726 98.6523 894.551 103.327 892.201 107.277C889.901 111.177 886.601 114.202 882.301 116.352C878.001 118.452 872.901 119.502 867.001 119.502H849.151L849.076 116.352C850.526 116.352 852.026 116.352 853.576 116.352C855.176 116.352 856.726 116.352 858.226 116.352C859.726 116.352 861.051 116.352 862.201 116.352C863.401 116.352 864.351 116.352 865.051 116.352C865.751 116.352 866.101 116.352 866.101 116.352C869.701 116.352 872.801 115.427 875.401 113.577C878.001 111.677 880.001 109.002 881.401 105.552C882.801 102.102 883.501 98.0023 883.501 93.2523C883.501 88.5023 882.801 84.4023 881.401 80.9523C880.001 77.5023 878.001 74.8523 875.401 73.0023C872.801 71.1023 869.701 70.1523 866.101 70.1523C866.101 70.1523 865.726 70.1523 864.976 70.1523C864.276 70.1523 863.301 70.1523 862.051 70.1523C860.801 70.1523 859.401 70.1523 857.851 70.1523C856.301 70.1523 854.701 70.1523 853.051 70.1523C851.401 70.1523 849.826 70.1523 848.326 70.1523V67.0023H867.001ZM856.801 67.0023V119.502H845.551V67.0023H856.801ZM845.776 114.027V119.502H839.776V118.752C839.776 118.752 839.926 118.752 840.226 118.752C840.576 118.752 840.751 118.752 840.751 118.752C842.051 118.752 843.151 118.302 844.051 117.402C845.001 116.452 845.501 115.327 845.551 114.027H845.776ZM845.776 72.4773H845.551C845.551 71.1773 845.076 70.0773 844.126 69.1773C843.176 68.2273 842.051 67.7523 840.751 67.7523C840.751 67.7523 840.601 67.7523 840.301 67.7523C840.001 67.7523 839.851 67.7523 839.851 67.7523L839.776 67.0023H845.776V72.4773Z" fill="#39444E"/>
<path d="M810.951 67.0023V119.502H799.701V67.0023H810.951ZM830.751 116.277L832.551 119.502H810.726V116.277H830.751ZM836.226 104.127L832.776 119.502H818.076L820.776 116.277C823.276 116.277 825.476 115.802 827.376 114.852C829.276 113.852 830.901 112.452 832.251 110.652C833.601 108.802 834.676 106.627 835.476 104.127H836.226ZM799.926 114.027V119.502H793.926V118.752C793.926 118.752 794.076 118.752 794.376 118.752C794.726 118.752 794.901 118.752 794.901 118.752C796.201 118.752 797.301 118.302 798.201 117.402C799.151 116.452 799.651 115.327 799.701 114.027H799.926ZM799.926 72.4773H799.701C799.651 71.1773 799.151 70.0773 798.201 69.1773C797.301 68.2273 796.201 67.7523 794.901 67.7523C794.901 67.7523 794.726 67.7523 794.376 67.7523C794.076 67.7523 793.926 67.7523 793.926 67.7523V67.0023H799.926V72.4773ZM810.726 72.4773V67.0023H816.726V67.7523C816.676 67.7523 816.501 67.7523 816.201 67.7523C815.901 67.7523 815.751 67.7523 815.751 67.7523C814.451 67.7523 813.326 68.2273 812.376 69.1773C811.476 70.0773 811.001 71.1773 810.951 72.4773H810.726Z" fill="#39444E"/>
<path d="M755.05 67.0023H764.725C766.975 67.0023 769.175 67.2523 771.325 67.7523C773.475 68.2523 775.375 69.0523 777.025 70.1523C778.725 71.2523 780.075 72.7023 781.075 74.5023C782.075 76.3023 782.575 78.5273 782.575 81.1773C782.575 83.2773 782.125 85.3773 781.225 87.4773C780.375 89.5273 779.05 91.3023 777.25 92.8023C775.45 94.2523 773.125 95.1273 770.275 95.4273C771.875 95.9273 773.325 96.8273 774.625 98.1273C775.975 99.4273 777.075 100.727 777.925 102.027C777.975 102.127 778.25 102.577 778.75 103.377C779.3 104.177 779.95 105.177 780.7 106.377C781.5 107.527 782.325 108.702 783.175 109.902C784.025 111.102 784.8 112.152 785.5 113.052C786.6 114.402 787.6 115.502 788.5 116.352C789.4 117.152 790.35 117.752 791.35 118.152C792.35 118.502 793.5 118.702 794.8 118.752V119.502H787.45C784.75 119.502 782.3 119.277 780.1 118.827C777.9 118.327 775.95 117.502 774.25 116.352C772.55 115.202 771.075 113.652 769.825 111.702C769.425 111.102 768.975 110.352 768.475 109.452C768.025 108.502 767.55 107.502 767.05 106.452C766.55 105.402 766.05 104.402 765.55 103.452C765.1 102.452 764.7 101.552 764.35 100.752C764 99.9523 763.75 99.3273 763.6 98.8773C762.95 97.2773 762.175 96.0773 761.275 95.2773C760.425 94.4773 759.5 94.0023 758.5 93.8523V93.1023C758.65 93.1023 758.95 93.1023 759.4 93.1023C759.85 93.1023 760.325 93.1023 760.825 93.1023C762.175 93.1023 763.475 92.8273 764.725 92.2773C766.025 91.7273 767.175 90.8273 768.175 89.5773C769.175 88.3273 769.875 86.6023 770.275 84.4023C770.375 83.9523 770.45 83.4273 770.5 82.8273C770.6 82.2273 770.625 81.5523 770.575 80.8023C770.425 77.2023 769.525 74.5773 767.875 72.9273C766.225 71.2273 764.175 70.3523 761.725 70.3023C761.025 70.2523 760.25 70.2523 759.4 70.3023C758.6 70.3023 757.85 70.3023 757.15 70.3023C756.5 70.3023 756.05 70.3023 755.8 70.3023C755.8 70.2523 755.725 69.9773 755.575 69.4773C755.475 68.9273 755.35 68.3773 755.2 67.8273C755.1 67.2773 755.05 67.0023 755.05 67.0023ZM756.025 67.0023V119.502H744.775V67.0023H756.025ZM745 114.027V119.502H739V118.752C739.05 118.752 739.2 118.752 739.45 118.752C739.75 118.752 739.925 118.752 739.975 118.752C741.275 118.752 742.375 118.302 743.275 117.402C744.225 116.452 744.725 115.327 744.775 114.027H745ZM745 72.4773H744.775C744.725 71.1773 744.225 70.0773 743.275 69.1773C742.375 68.2273 741.275 67.7523 739.975 67.7523C739.925 67.7523 739.75 67.7523 739.45 67.7523C739.2 67.7523 739.05 67.7523 739 67.7523V67.0023H745V72.4773ZM755.8 114.027H756.025C756.025 115.327 756.5 116.452 757.45 117.402C758.4 118.302 759.525 118.752 760.825 118.752C760.925 118.752 761.1 118.752 761.35 118.752C761.6 118.752 761.725 118.752 761.725 118.752V119.502H755.8V114.027Z" fill="#39444E"/>
<path d="M701.625 116.013L702.142 101.564L712.647 91.2579H719.364V97.6301L727.097 98.8356C727.719 97.2282 728.214 95.5634 728.581 93.8412C728.949 92.119 729.132 90.3393 729.132 88.5023C729.132 83.393 727.877 78.7511 725.368 74.5764C722.858 70.4017 719.536 67.1089 715.403 64.6977V74.7245H705.069V85.0579H698.181V95.3912H691.206L684.403 85.0579H680.958V88.5023L674.979 95.3051C676.471 101.275 679.678 106.219 684.599 110.137C689.52 114.054 695.195 116.013 701.625 116.013ZM715.403 95.3912H705.069V88.5023H715.403V95.3912ZM715.403 74.7245H722.378L718.864 85.0579H711.872L715.403 74.7245ZM701.635 119.502C697.348 119.502 693.318 118.689 689.545 117.064C685.773 115.436 682.49 113.227 679.698 110.437C676.905 107.647 674.695 104.367 673.067 100.599C671.439 96.831 670.625 92.8021 670.625 88.5126C670.625 84.2232 671.439 80.1932 673.067 76.4226C674.693 72.6498 676.901 69.3673 679.691 66.575C682.481 63.7827 685.76 61.5725 689.528 59.9444C693.296 58.3163 697.325 57.5023 701.615 57.5023C705.904 57.5023 709.934 58.3163 713.705 59.9444C717.478 61.5702 720.76 63.7769 723.552 66.5646C726.345 69.3523 728.555 72.6326 730.183 76.4054C731.811 80.1782 732.625 84.2071 732.625 88.492C732.625 92.7769 731.812 96.8069 730.186 100.582C728.561 104.357 726.353 107.64 723.563 110.43C720.773 113.22 717.492 115.43 713.722 117.06C709.951 118.691 705.923 119.505 701.635 119.502Z" fill="#00E5E8"/>
<path d="M595.105 67.8243H608.59L620.335 98.7963L615.463 120.459L595.105 67.8243ZM633.994 66.0843L635.56 74.0883L618.247 111.672C618.247 111.672 618.073 112.107 617.725 112.977C617.435 113.847 617.116 114.949 616.768 116.283C616.42 117.617 616.246 119.009 616.246 120.459H615.463L613.114 110.802L633.298 66.0843H633.994ZM633.994 66.0843L651.046 100.362L646.957 120.459L628.252 82.7883L633.994 66.0843ZM663.4 67.8243L649.132 111.672C649.132 111.672 648.987 112.136 648.697 113.064C648.465 113.992 648.233 115.152 648.001 116.544C647.769 117.878 647.682 119.183 647.74 120.459H646.957L644.608 112.629L657.832 67.8243H663.4ZM656.266 72.9573C656.73 71.2753 656.614 70.0573 655.918 69.3033C655.28 68.5493 654.468 68.1723 653.482 68.1723H652.786V67.3023H669.142V68.1723C669.142 68.1723 669.026 68.1723 668.794 68.1723C668.62 68.1723 668.533 68.1723 668.533 68.1723C667.199 68.1723 665.865 68.5783 664.531 69.3903C663.197 70.1443 662.269 71.3333 661.747 72.9573H656.266ZM610.591 72.9573H597.106C596.468 71.3333 595.54 70.1443 594.322 69.3903C593.104 68.5783 591.77 68.1723 590.32 68.1723C590.32 68.1723 590.204 68.1723 589.972 68.1723C589.74 68.1723 589.624 68.1723 589.624 68.1723V67.3023H614.071V68.1723H613.375C612.447 68.1723 611.606 68.5493 610.852 69.3033C610.098 70.0573 610.011 71.2753 610.591 72.9573Z" fill="#39444E"/>
<path d="M194.047 74.4827C231.053 26.9639 266.931 8.18352 290.722 7.07049C302.609 6.51445 311.968 10.4044 316.336 18.019C320.707 25.6378 319.48 35.9346 312.545 46.8492L308.325 44.1673C314.735 34.079 315.078 25.873 312 20.5064C308.918 15.1357 301.806 11.5571 290.955 12.0648C269.266 13.0795 234.591 30.5578 197.991 77.5555L194.047 74.4827Z" fill="#00E5E8"/>
<path d="M107.975 65.6023C107.508 71.5523 107.158 77.269 106.925 82.7523C106.808 88.2356 106.75 92.4356 106.75 95.3523C106.75 97.919 106.808 100.369 106.925 102.702C107.042 105.036 107.158 107.019 107.275 108.652H103.25C101.383 98.8523 98.9917 91.094 96.075 85.3773C93.275 79.6606 89.8917 75.6356 85.925 73.3023C81.9583 70.8523 77.2917 69.6273 71.925 69.6273H67.9V169.552C67.9 174.219 68.3667 177.719 69.3 180.052C70.35 182.386 72.2167 183.961 74.9 184.777C77.5833 185.477 81.4917 185.886 86.625 186.002V189.502C83.0083 189.386 78.1667 189.269 72.1 189.152C66.15 189.036 59.9083 188.977 53.375 188.977C46.9583 188.977 40.8917 189.036 35.175 189.152C29.4583 189.269 24.85 189.386 21.35 189.502V186.002C26.6 185.886 30.5667 185.477 33.25 184.777C35.9333 183.961 37.7417 182.386 38.675 180.052C39.6083 177.719 40.075 174.219 40.075 169.552V69.6273H36.225C30.8583 69.6273 26.1917 70.8523 22.225 73.3023C18.2583 75.6356 14.875 79.6606 12.075 85.3773C9.275 90.9773 6.825 98.7356 4.725 108.652H0.7C0.933334 107.019 1.05 105.036 1.05 102.702C1.16667 100.369 1.225 97.919 1.225 95.3523C1.225 92.4356 1.10833 88.2356 0.875 82.7523C0.758333 77.269 0.466667 71.5523 0 65.6023C5.36667 65.719 11.2 65.8356 17.5 65.9523C23.9167 66.069 30.3333 66.1273 36.75 66.1273C43.1667 66.1273 48.9417 66.1273 54.075 66.1273C59.325 66.1273 65.1 66.1273 71.4 66.1273C77.8167 66.1273 84.2333 66.069 90.65 65.9523C97.0667 65.8356 102.842 65.719 107.975 65.6023Z" fill="#1A2B48"/>
<path d="M282.97 65.6023V69.1023C280.403 70.0356 277.72 72.0773 274.92 75.2273C272.12 78.2606 269.67 83.1606 267.57 89.9273L236.77 189.852C235.836 189.736 234.845 189.677 233.795 189.677C232.745 189.677 231.695 189.677 230.645 189.677C229.595 189.677 228.545 189.677 227.495 189.677C226.445 189.677 225.453 189.736 224.52 189.852L187.77 78.5523C186.603 74.9356 185.145 72.4856 183.395 71.2023C181.761 69.919 180.011 69.219 178.145 69.1023V65.6023C181.411 65.719 185.261 65.8356 189.695 65.9523C194.245 66.069 198.736 66.1273 203.17 66.1273C208.303 66.1273 213.086 66.069 217.52 65.9523C222.07 65.8356 225.686 65.719 228.37 65.6023V69.1023C224.87 69.219 222.07 69.6273 219.97 70.3273C217.986 71.0273 216.82 72.369 216.47 74.3523C216.236 76.3356 216.82 79.4856 218.22 83.8023L243.07 159.752L239.045 166.927L258.82 104.102C261.62 95.2356 262.961 88.294 262.845 83.2773C262.728 78.2606 261.386 74.7023 258.82 72.6023C256.253 70.3856 252.578 69.219 247.795 69.1023V65.6023C251.761 65.719 255.495 65.8356 258.995 65.9523C262.495 66.069 265.995 66.1273 269.495 66.1273C272.178 66.1273 274.628 66.069 276.845 65.9523C279.178 65.8356 281.22 65.719 282.97 65.6023ZM158.02 65.6023V69.1023C155.686 69.4523 154.053 70.3273 153.12 71.7273C152.186 73.0106 151.778 74.7606 151.895 76.9773C152.128 79.0773 152.653 81.3523 153.47 83.8023L180.245 161.502L175.52 167.802L197.92 102.352L200.37 107.077L172.895 189.852C171.961 189.736 170.97 189.677 169.92 189.677C168.87 189.677 167.82 189.677 166.77 189.677C165.72 189.677 164.67 189.677 163.62 189.677C162.57 189.677 161.578 189.736 160.645 189.852L121.445 80.3023C119.928 75.9856 118.12 73.069 116.02 71.5523C114.036 70.0356 112.17 69.219 110.42 69.1023V65.6023C113.92 65.719 118.061 65.8356 122.845 65.9523C127.628 66.069 132.178 66.1273 136.495 66.1273C141.161 66.1273 145.303 66.069 148.92 65.9523C152.653 65.8356 155.686 65.719 158.02 65.6023Z" fill="#1A2B48"/>
<path d="M333.975 65.2523L376.5 174.802C378.134 179.002 379.942 181.919 381.925 183.552C384.025 185.069 385.892 185.886 387.525 186.002V189.502C384.025 189.269 379.884 189.152 375.1 189.152C370.434 189.036 365.709 188.977 360.925 188.977C355.559 188.977 350.484 189.036 345.7 189.152C340.917 189.152 337.125 189.269 334.325 189.502V186.002C340.275 185.769 344.009 184.777 345.525 183.027C347.159 181.161 346.809 177.252 344.475 171.302L314.725 89.9273L317.875 85.3773L291.275 154.677C288.709 161.094 287.134 166.344 286.55 170.427C286.084 174.511 286.375 177.661 287.425 179.877C288.592 182.094 290.4 183.669 292.85 184.602C295.417 185.419 298.45 185.886 301.95 186.002V189.502C298.1 189.269 294.425 189.152 290.925 189.152C287.425 189.036 283.867 188.977 280.25 188.977C277.684 188.977 275.234 189.036 272.9 189.152C270.684 189.152 268.7 189.269 266.95 189.502V186.002C269.4 185.536 271.909 183.961 274.475 181.277C277.042 178.594 279.55 174.044 282 167.627L321.9 65.2523C323.767 65.369 325.75 65.4273 327.85 65.4273C330.067 65.4273 332.109 65.369 333.975 65.2523ZM346.225 139.102V142.602H294.075L295.825 139.102H346.225Z" fill="#1A2B48"/>
<path d="M104.805 186.593C97.5497 201.549 94.1892 213.193 93.8157 221.786C93.4449 230.32 96.0045 235.482 100.219 238.269C104.599 241.164 111.442 241.964 120.591 240.144C129.67 238.338 140.616 234.024 152.78 227.281C201.475 200.283 268.013 135.276 309.276 43.4771L313.836 45.5273C272.168 138.228 204.92 204.091 155.205 231.654C142.766 238.55 131.32 243.108 121.567 245.048C111.883 246.975 103.45 246.398 97.4615 242.439C91.3069 238.37 88.402 231.2 88.8205 221.569C89.2365 211.996 92.9191 199.641 100.307 184.412L104.805 186.593Z" fill="#00E5E8"/>
<path d="M311.625 54.5023C317.148 54.5023 321.625 50.0252 321.625 44.5023C321.625 38.9795 317.148 34.5023 311.625 34.5023C306.102 34.5023 301.625 38.9795 301.625 44.5023C301.625 50.0252 306.102 54.5023 311.625 54.5023Z" fill="#00E5E8"/>
</svg>
